<?xml version="1.0" encoding="utf-8"?>
<!-- Generator: Adobe Illustrator 27.5.0, SVG Export Plug-In . SVG Version: 6.00 Build 0)  -->
<svg version="1.1" xmlns="http://www.w3.org/2000/svg" xmlns:xlink="http://www.w3.org/1999/xlink" x="0px" y="0px"
	 viewBox="0 0 500 500" style="enable-background:new 0 0 500 500;" xml:space="preserve">
<g id="BACKGROUND">
	<rect style="fill:none;" width="500" height="500"/>
</g>
<g id="OBJECTS">
	<g>
		<g>
			<g>
				<g>
					<polygon style="fill:#B8B8D8;" points="324.302,351.383 422.72,293.51 422.72,209.368 324.302,266.529 					"/>
					<g>
						<polygon style="fill:#D5D5EF;" points="355.647,167.18 422.72,205.522 326.604,261.191 260.415,223.142 						"/>
						<path style="fill:none;stroke:#221F4F;stroke-miterlimit:10;" d="M297.741,215.958"/>
						<polygon style="fill:#777793;" points="422.72,205.522 422.72,209.368 326.604,265.51 326.604,261.191 						"/>
					</g>
					<polygon style="opacity:0.5;fill:#D5D5EF;" points="345.36,278.801 345.364,314.65 397.438,284.453 397.438,248.564 					"/>
				</g>
				<polygon style="opacity:0.3;fill:#777793;" points="329.992,347.605 329.992,291.203 333.418,273.682 333.418,257.245 
					326.604,261.191 324.3,351.197 				"/>
			</g>
			<g>
				<g>
					<polygon style="fill:#B8B8D8;" points="168.563,244.387 168.563,62.255 164.621,60.996 164.621,241.402 					"/>
					<polyline style="fill:#ABABCE;" points="172.993,235.73 168.545,238.977 168.545,52.971 172.993,48.451 173.954,234.604 					
						"/>
				</g>
				<g>
					<polygon style="fill:#F05A00;" points="168.659,60.149 168.659,82.54 188.195,71.344 188.195,49.043 					"/>
					<polygon style="fill:#F59300;" points="149.492,71.385 168.659,82.54 168.659,60.149 149.644,49 					"/>
					<polygon style="fill:#FFA500;" points="168.659,37.848 188.195,49.043 168.659,60.149 149.644,49 					"/>
				</g>
			</g>
			<g>
				<g>
					<polygon style="fill:#47476D;" points="217.635,384.621 217.635,413.32 173.864,388.195 173.864,360.912 					"/>
					<polygon style="fill:#221F4F;" points="217.635,413.32 324.3,351.197 324.3,322.41 217.635,384.621 					"/>
				</g>
				<polygon style="fill:#B8B8D8;" points="164.737,225.374 164.737,369.156 226.859,405.127 226.95,347.605 230.361,331.27 
					230.361,263.047 				"/>
				<g>
					<polygon style="fill:#ABABCE;" points="230.361,263.047 230.361,331.27 330.102,273.682 329.992,205.522 					"/>
					<polygon style="fill:#777793;" points="226.95,347.605 230.361,331.27 330.102,273.682 326.586,290.08 					"/>
					<polygon style="fill:#ABABCE;" points="226.95,347.605 226.859,405.127 326.49,347.607 326.586,290.08 					"/>
					<g>
						<polygon style="fill:#221F4F;" points="299.355,234.096 299.355,252.964 323.185,239.204 323.185,220.542 						"/>
						<polygon style="fill:#47476D;" points="302.463,240.688 302.463,243.226 320.706,233.004 320.706,230.28 						"/>
						
							<line style="fill:none;stroke:#221F4F;stroke-width:0.5;stroke-miterlimit:10;" x1="302.463" y1="242.119" x2="320.706" y2="231.924"/>
					</g>
					<g>
						<polygon style="fill:#221F4F;" points="243.925,265.685 243.925,277.697 264.279,265.902 264.279,254.109 						"/>
						<polygon style="fill:#47476D;" points="246.579,268.504 246.579,272.19 262.161,263.244 262.161,259.617 						"/>
						
							<line style="fill:none;stroke:#221F4F;stroke-width:0.5;stroke-miterlimit:10;" x1="246.579" y1="270.23" x2="262.161" y2="261.742"/>
					</g>
				</g>
				<g>
					<polygon style="fill:#B8B8D8;" points="230.47,257.529 230.47,263.324 163.058,224.404 163.058,218.674 					"/>
					<polygon style="fill:#ABABCE;" points="230.361,257.251 329.992,199.726 329.992,205.522 230.361,263.047 					"/>
					<polygon style="fill:#47476D;" points="164.737,225.374 230.361,263.047 230.361,265.902 164.703,228.099 					"/>
					<polygon style="fill:#221F4F;" points="230.361,265.902 329.992,208.327 329.992,205.522 230.361,263.047 					"/>
					<g>
						<polygon style="fill:#E9E9FF;" points="163.058,218.674 262.784,161.206 330.102,200.004 230.47,257.529 						"/>
						<g>
							<polygon style="fill:#ABABCE;" points="256.849,191.615 260.42,193.928 284.159,180.09 280.603,177.901 							"/>
							<polygon style="fill:#ABABCE;" points="267.927,197.944 271.5,200.256 295.238,186.418 291.683,184.229 							"/>
							<polygon style="fill:#ABABCE;" points="280.402,205.427 283.975,207.74 307.714,193.901 304.155,191.712 							"/>
						</g>
						<g>
							<g>
								<polygon style="fill:#ABABCE;" points="243.747,234.725 199.268,207.892 235.405,187.626 280.178,213.691 								"/>
								<polygon style="fill:#47476D;" points="243.418,232.395 202.578,207.757 235.758,189.149 276.867,213.082 								"/>
								<polygon style="fill:#221F4F;" points="241.698,222.727 219.88,209.565 237.605,199.624 259.565,212.41 								"/>
							</g>
							<polygon style="opacity:0.1;fill:#B8B8D8;" points="202.578,207.757 276.867,213.082 243.418,232.395 							"/>
						</g>
					</g>
				</g>
				<g>
					<g>
						<g>
							<g>
								<polygon style="fill:#9B9BBA;" points="195.22,148.783 195.22,206.959 233.862,184.648 233.862,127.4 								"/>
								<polygon style="fill:#B8B8D8;" points="188.998,203.586 195.22,207.179 195.159,148.3 188.999,144.744 								"/>
								<polygon style="fill:#221F4F;" points="206.706,170.566 206.706,199.344 225.677,188.412 225.677,159.613 								"/>
								<polygon style="fill:#F05A00;" points="206.706,174.746 225.677,164.086 225.677,159.613 206.706,170.566 								"/>
								<polygon style="fill:#221F4F;" points="199.268,174.861 199.268,189.229 202.643,187.28 202.643,172.912 								"/>
							</g>
							<g>
								<polygon style="fill:#ABABCE;" points="179.692,118.134 179.692,175.604 241.906,139.685 241.906,82.214 								"/>
								<polygon style="fill:#221F4F;" points="183.984,119.566 183.984,169.106 237.613,138.144 237.613,88.604 								"/>
								<polygon style="fill:#B8B8D8;" points="173.471,172.011 179.692,175.604 179.692,118.134 173.475,114.544 								"/>
								<polygon style="fill:#E9E9FF;" points="235.778,78.569 173.475,114.544 179.692,118.134 241.906,82.214 								"/>
							</g>
						</g>
						<polygon style="opacity:0.5;fill:#47476D;" points="211.597,177.901 211.597,196.525 221.418,190.865 221.418,172.912 						
							"/>
					</g>
					<polygon style="opacity:0.1;fill:#B8B8D8;" points="237.613,138.144 183.984,119.566 183.984,169.106 					"/>
				</g>
				<g>
					<g>
						<polygon style="fill:#777793;" points="255.34,185.638 255.34,161.176 261.86,157.123 261.86,181.873 						"/>
						<polygon style="fill:#ABABCE;" points="255.369,185.587 250.002,182.602 250.002,157.867 255.344,161.216 						"/>
					</g>
					<polygon style="fill:#47476D;" points="254.893,168.626 269.718,160.155 254.334,151.055 240.145,159.742 					"/>
					<g>
						<polygon style="fill:#ABABCE;" points="254.971,134.243 254.597,151.236 269.718,160.155 269.796,149.176 261.885,138.234 
													"/>
						<polygon style="fill:#9B9BBA;" points="255.211,134.123 254.971,134.243 261.885,138.234 262.132,138.067 						"/>
						<polygon style="fill:#9B9BBA;" points="269.796,149.176 261.885,138.234 262.132,138.067 270.035,149.021 						"/>
						<polygon style="fill:#9B9BBA;" points="269.718,160.155 269.796,149.176 270.035,149.021 270.035,159.973 						"/>
					</g>
					<polygon style="fill:#D5D5EF;" points="258.519,138.655 254.891,136.64 241.746,143.638 245.793,145.974 					"/>
					<g>
						<polygon style="fill:#B8B8D8;" points="265.96,159.288 253.605,166.42 245.605,146.081 258.519,138.655 						"/>
						<g>
							<polygon style="fill:#47476D;" points="248.521,146.565 258.074,141.118 260.08,146.291 251.01,151.464 							"/>
							<g>
								<polygon style="fill:#777793;" points="252.998,152.631 254.955,151.505 255.671,153.461 253.748,154.59 								"/>
								<polygon style="fill:#777793;" points="255.671,151.104 257.629,149.977 258.345,151.933 256.422,153.063 								"/>
								<polygon style="fill:#777793;" points="258.283,149.561 260.241,148.436 260.957,150.39 259.032,151.52 								"/>
								<polygon style="fill:#777793;" points="254.039,155.252 255.998,154.126 256.713,156.081 254.789,157.21 								"/>
								<polygon style="fill:#777793;" points="256.713,153.724 258.672,152.598 259.386,154.553 257.463,155.683 								"/>
								<polygon style="fill:#777793;" points="259.326,152.181 261.283,151.055 261.997,153.01 260.075,154.141 								"/>
								<polygon style="fill:#777793;" points="255.068,157.886 257.027,156.761 257.742,158.716 255.82,159.846 								"/>
								<polygon style="fill:#777793;" points="257.742,156.359 259.699,155.232 260.415,157.188 258.494,158.318 								"/>
								<polygon style="fill:#777793;" points="260.354,154.816 262.311,153.689 263.027,155.646 261.105,156.775 								"/>
								<polygon style="fill:#00A70F;" points="256.082,160.491 258.039,159.366 258.754,161.321 256.83,162.451 								"/>
								<polygon style="fill:#FFA500;" points="258.754,158.964 260.711,157.837 261.427,159.793 259.504,160.923 								"/>
								<polygon style="fill:#F05A00;" points="261.366,157.42 263.324,156.295 264.038,158.251 262.117,159.38 								"/>
							</g>
						</g>
					</g>
					<g>
						<polygon style="fill:#B8B8D8;" points="240.145,142.713 240.145,159.742 254.893,168.626 254.971,157.647 247.058,146.705 
													"/>
						<polygon style="fill:#E9E9FF;" points="240.385,142.593 240.145,142.713 247.058,146.705 247.305,146.538 						"/>
						<polygon style="fill:#E9E9FF;" points="254.971,157.647 247.058,146.705 247.305,146.538 255.209,157.493 						"/>
						<polygon style="fill:#9B9BBA;" points="254.893,168.626 254.971,157.647 255.209,157.493 255.209,168.444 						"/>
					</g>
				</g>
			</g>
			<g>
				<polygon style="opacity:0.3;fill:#777793;" points="230.299,323.697 195.75,387.115 164.737,369.156 164.703,286.883 				"/>
				<g>
					<polygon style="fill:#D5D5EF;" points="164.567,281.607 230.299,319.559 143.567,369.889 77.377,331.838 					"/>
					<polygon style="fill:#B8B8D8;" points="77.377,331.838 77.281,415.719 143.567,454.123 143.567,369.889 					"/>
					<polygon style="fill:#777793;" points="230.299,319.559 230.299,323.697 143.567,374.209 143.567,369.889 					"/>
					<polygon style="fill:#777793;" points="147.148,367.81 147.148,452.156 143.567,454.123 143.567,369.889 					"/>
				</g>
			</g>
		</g>
		<g>
			<g>
				<polygon style="fill:#F05A00;" points="99.118,339.07 92.944,297.768 166.319,256.068 215.673,283.298 209.345,323.203 
					141.096,362.739 				"/>
				<g>
					<polygon style="fill:#47476D;" points="133.343,275.68 166.319,256.068 211.989,282.261 178.565,301.789 176.569,300.637 
						208.212,282.616 166.532,258.719 135.446,276.895 					"/>
					<polygon style="fill:#221F4F;" points="166.674,261.077 166.532,258.719 135.446,276.895 135.446,279.346 					"/>
					<polygon style="fill:#221F4F;" points="166.532,258.719 166.674,261.077 206.051,283.849 208.212,282.616 					"/>
					<polygon style="fill:#221F4F;" points="135.446,279.346 133.343,278.206 133.343,275.68 135.446,276.895 					"/>
					<polygon style="fill:#221F4F;" points="176.579,302.952 176.579,300.653 178.565,301.789 					"/>
				</g>
				<path style="fill:#FFA500;" d="M166.584,253.391l-75.972,44.511l50.676,28.666l76.071-44.171L166.584,253.391z M140.997,323.818
					l-44.889-25.917l70.112-41.697l45.67,26.192L140.997,323.818z"/>
			</g>
			<g>
				<path style="fill:#00A70F;" d="M142.569,356.563c0,0-5.575-80.372-5.146-94.662c0.428-14.287,1.053-33.625,2.868-44.666
					c0.193-1.171,1.155-4.604,1.155-4.604s0.554,14.648,1.027,27.945c0.474,13.297,1.263,43.31,2.065,53.251
					c0.802,9.941-0.802,39.946,0,46.117c0.802,6.171-0.541,17.291-0.541,17.291L142.569,356.563z"/>
				<path style="fill:#00A70F;" d="M142.051,355.011c0,0,4.756-69.613,6.82-81.818c2.063-12.208,4.895-28.724,7.762-37.98
					c0.303-0.982,1.536-3.813,1.536-3.813s-1.264,12.632-2.435,24.096c-1.171,11.462-4.057,37.304-4.548,45.928
					c-0.492,8.623-5.429,34.175-5.474,39.564c-0.043,5.389-2.515,14.769-2.515,14.769L142.051,355.011z"/>
				<path style="fill:#008C07;" d="M140.636,354.486c0,0,1.615-80.55,3.316-94.743c1.701-14.192,4.047-33.397,6.84-44.233
					c0.296-1.149,1.56-4.482,1.56-4.482s-0.754,14.64-1.468,27.925c-0.714,13.286-2.604,43.248-2.691,53.223
					c-0.087,9.974-4.361,39.716-4.113,45.935c0.249,6.219-2.08,17.173-2.08,17.173L140.636,354.486z"/>
				<path style="fill:#008C07;" d="M139.852,353.147c0,0-7.413-86.457-8.245-99.756c-0.595-9.529,0.921-17.266,0.921-17.266
					s7.33,38.572,7.324,49.967c-0.006,11.396,1.535,68.202,1.535,68.202L139.852,353.147z"/>
			</g>
			<g>
				<path style="fill:#FFC500;" d="M167.874,305.181c-7.638,28.026-21.263,48.726-30.436,46.23
					c-9.172-2.505-10.412-27.253-2.776-55.281c7.64-28.032,21.269-48.732,30.446-46.232
					C174.276,252.395,175.517,277.146,167.874,305.181z"/>
				<path style="fill:#F59300;" d="M167.874,305.181c7.643-28.035,6.402-52.786-2.766-55.282c-2.477-0.675-5.278,0.352-8.197,2.743
					c4.986,8.288,4.634,28.876-1.564,51.615c-5.577,20.467-14.35,37.015-22.249,43.483c1.16,1.931,2.608,3.199,4.339,3.671
					C146.611,353.906,160.236,333.207,167.874,305.181z"/>
				<g>
					<path style="fill:#FFA500;" d="M155.699,280.396c-0.287,1.193-1.487,1.928-2.679,1.641l-7.759-1.868
						c-1.193-0.287-1.927-1.487-1.64-2.68l0,0c0.287-1.193,1.486-1.926,2.679-1.639l7.759,1.867
						C155.252,278.004,155.987,279.203,155.699,280.396L155.699,280.396z"/>
					<path style="fill:#FFA500;" d="M153.846,288.096c-0.287,1.192-1.487,1.925-2.679,1.639l-7.76-1.868
						c-1.192-0.286-1.926-1.484-1.639-2.678l0,0c0.288-1.193,1.487-1.927,2.68-1.641l7.759,1.869
						C153.398,285.703,154.133,286.903,153.846,288.096L153.846,288.096z"/>
					<path style="fill:#FFA500;" d="M151.993,295.795c-0.288,1.193-1.487,1.927-2.68,1.64l-7.759-1.868
						c-1.193-0.287-1.926-1.486-1.64-2.68l0,0c0.288-1.191,1.486-1.926,2.679-1.639l7.76,1.867
						C151.545,293.402,152.28,294.602,151.993,295.795L151.993,295.795z"/>
					<path style="fill:#FFA500;" d="M150.139,303.495c-0.287,1.192-1.486,1.926-2.679,1.639l-7.759-1.867
						c-1.193-0.287-1.927-1.486-1.639-2.679l0,0c0.287-1.193,1.486-1.928,2.679-1.641l7.759,1.868
						C149.691,301.103,150.425,302.303,150.139,303.495L150.139,303.495z"/>
					<path style="fill:#FFA500;" d="M148.285,311.193c-0.287,1.193-1.487,1.928-2.679,1.641l-7.759-1.868
						c-1.192-0.287-1.927-1.487-1.64-2.68l0,0c0.287-1.192,1.487-1.926,2.679-1.638l7.759,1.867
						C147.838,308.803,148.572,310,148.285,311.193L148.285,311.193z"/>
					<path style="fill:#FFA500;" d="M146.431,318.894c-0.287,1.192-1.486,1.926-2.679,1.639l-7.759-1.868
						c-1.192-0.286-1.926-1.484-1.639-2.678l0,0c0.288-1.193,1.486-1.927,2.679-1.64l7.76,1.868
						C145.984,316.502,146.719,317.7,146.431,318.894L146.431,318.894z"/>
					<path style="fill:#FFA500;" d="M144.578,326.593c-0.287,1.193-1.486,1.927-2.678,1.64l-7.759-1.868
						c-1.193-0.287-1.927-1.486-1.639-2.679l0,0c0.287-1.193,1.486-1.928,2.678-1.641l7.759,1.868
						C144.131,324.199,144.865,325.399,144.578,326.593L144.578,326.593z"/>
				</g>
			</g>
			<g>
				<g>
					<g>
						<path style="fill:#99A5ED;" d="M110.626,330.273c-5.954,3.435-5.983,9.028-0.068,12.468c5.916,3.436,15.573,3.436,21.523,0
							c5.955-3.439,5.99-9.033,0.073-12.468C126.242,326.834,116.583,326.834,110.626,330.273z"/>
					</g>
					<rect x="106.142" y="292.853" style="fill:#B8B8D8;" width="30.429" height="43.504"/>
					<g>
						<path style="fill:#D5D5EF;" d="M110.626,287.022c-5.954,3.438-5.983,9.031-0.068,12.47c5.916,3.436,15.573,3.436,21.523,0
							c5.955-3.439,5.99-9.032,0.073-12.47C126.242,283.584,116.583,283.584,110.626,287.022z"/>
					</g>
					<polygon style="fill:#D5D5EF;" points="130.343,289.513 112.371,289.778 112.903,271.974 129.83,271.974 					"/>
					<g>
						<path style="fill:#008C07;" d="M115.011,273.97c-3.52,2.031-3.538,5.339-0.039,7.374c3.498,2.031,9.208,2.031,12.727,0
							c3.521-2.035,3.542-5.343,0.043-7.374C124.245,271.938,118.534,271.938,115.011,273.97z"/>
					</g>
					<polygon style="fill:#008C07;" points="112.36,277.654 112.359,273.628 130.27,273.628 130.352,277.654 					"/>
					<g>
						<path style="fill:#00A70F;" d="M115.011,269.289c-3.52,2.03-3.538,5.339-0.039,7.37c3.498,2.034,9.208,2.034,12.727,0
							c3.521-2.031,3.542-5.34,0.043-7.37C124.245,267.254,118.534,267.254,115.011,269.289z"/>
					</g>
					<g>
						<path style="fill:#D5D5EF;" d="M115.011,286.095c-3.52,2.03-3.538,5.336-0.04,7.37c3.498,2.032,9.208,2.032,12.727,0
							c3.521-2.034,3.542-5.34,0.042-7.37C124.245,284.061,118.535,284.061,115.011,286.095z"/>
					</g>
				</g>
				<polygon style="fill:#E9E9FF;" points="126.15,283.673 125.671,298.621 128.642,297.048 127.585,283.043 				"/>
			</g>
			<g>
				<polygon style="fill:#D5D5EF;" points="199.592,284.934 182.222,272.226 179.739,273.69 				"/>
				<polygon style="fill:#D5D5EF;" points="161.886,326.412 161.886,284.081 180.039,294.646 180.039,336.895 				"/>
				<polygon style="fill:#B8B8D8;" points="180.039,336.895 199.592,326.414 199.592,284.934 180.039,294.646 				"/>
				<polygon style="fill:#E9E9FF;" points="161.886,284.081 172.474,269.151 186.686,277.427 180.039,294.646 				"/>
				<polygon style="fill:#D5D5EF;" points="172.474,269.151 186.464,277.228 187.004,271.997 173.162,264.678 				"/>
				<polygon style="fill:#D5D5EF;" points="199.592,284.934 187.004,277.54 180.039,294.646 				"/>
				<polygon style="fill:#B8B8D8;" points="187.004,271.997 186.464,277.555 180.039,294.646 180.903,294.216 187.265,277.69 
					187.837,271.582 				"/>
				<polygon style="fill:#B8B8D8;" points="198.767,285.344 186.686,278.349 187.004,277.54 199.592,284.934 				"/>
				<polygon style="fill:#E9E9FF;" points="173.162,264.678 187.004,271.997 187.837,271.582 173.982,264.217 				"/>
			</g>
			<g>
				<g>
					<polygon style="fill:#F05A00;" points="141.096,331.924 141.096,362.739 209.345,323.203 215.673,288.608 					"/>
					<polygon style="fill:#FF7400;" points="141.387,326.431 141.387,335.866 215.814,292.887 217.459,282.261 					"/>
					<g>
						<path style="opacity:0.5;fill:#F05A00;" d="M151.447,332.539v17.515c0,0,0,2.722,1.201,2.986
							c1.766,0.388,2.972-0.841,3.127-4.896c0.083-2.224-0.119-9.875-0.185-15.462c-0.019-1.605-1.544-2.673-2.768-1.873
							C151.598,331.611,151.447,332.539,151.447,332.539z"/>
						<path style="opacity:0.5;fill:#F05A00;" d="M159.751,327.85v17.516c0,0,0,2.72,1.201,2.984
							c1.766,0.39,2.973-0.839,3.126-4.895c0.084-2.225-0.118-9.875-0.184-15.462c-0.019-1.607-1.545-2.673-2.769-1.873
							C159.9,326.922,159.751,327.85,159.751,327.85z"/>
						<path style="opacity:0.5;fill:#F05A00;" d="M168.249,323.155v17.514c0,0,0,2.721,1.201,2.985
							c1.767,0.39,2.973-0.84,3.126-4.895c0.084-2.225-0.118-9.875-0.184-15.463c-0.019-1.605-1.544-2.672-2.769-1.872
							C168.399,322.227,168.249,323.155,168.249,323.155z"/>
						<path style="opacity:0.5;fill:#F05A00;" d="M176.392,318.208v17.516c0,0,0,2.722,1.202,2.984
							c1.766,0.39,2.972-0.839,3.126-4.893c0.084-2.224-0.118-9.875-0.184-15.462c-0.019-1.605-1.545-2.673-2.768-1.873
							C176.541,317.282,176.392,318.208,176.392,318.208z"/>
						<path style="opacity:0.5;fill:#F05A00;" d="M184.58,313.632v17.514c0,0,0,2.722,1.201,2.987
							c1.766,0.388,2.973-0.839,3.126-4.897c0.083-2.225-0.119-9.874-0.184-15.461c-0.019-1.607-1.545-2.675-2.768-1.872
							C184.73,312.704,184.58,313.632,184.58,313.632z"/>
						<path style="opacity:0.5;fill:#F05A00;" d="M192.614,308.737v17.516c0,0,0,2.72,1.201,2.984
							c1.766,0.39,2.973-0.839,3.126-4.893c0.085-2.226-0.119-9.875-0.184-15.462c-0.019-1.606-1.544-2.674-2.769-1.873
							C192.764,307.811,192.614,308.737,192.614,308.737z"/>
						<path style="opacity:0.5;fill:#F05A00;" d="M200.344,304.683v17.515c0,0,0,2.72,1.201,2.985
							c1.766,0.389,2.973-0.839,3.126-4.895c0.084-2.225-0.119-9.876-0.184-15.462c-0.019-1.608-1.544-2.674-2.769-1.873
							C200.494,303.754,200.344,304.683,200.344,304.683z"/>
					</g>
				</g>
				<polygon style="fill:#FFA500;" points="217.36,282.397 141.387,326.431 141.387,323.309 214.405,280.708 				"/>
			</g>
			<g>
				<g>
					<polygon style="fill:#FF7400;" points="141.096,362.739 99.118,339.07 94.362,307.029 141.096,331.924 					"/>
					<polygon style="fill:#F59300;" points="141.387,335.866 91.632,306.82 90.71,297.768 141.387,326.431 					"/>
					<g>
						<path style="fill:#F05A00;" d="M128.786,331.527v15.895c0,0,0,2.469-1.09,2.708c-1.603,0.354-2.698-0.761-2.837-4.441
							c-0.077-2.018,0.107-8.961,0.167-14.029c0.017-1.458,1.401-2.427,2.512-1.699C128.65,330.685,128.786,331.527,128.786,331.527
							z"/>
						<path style="fill:#F05A00;" d="M136.474,335.63v15.895c0,0,0,2.47-1.09,2.707c-1.602,0.354-2.698-0.762-2.836-4.44
							c-0.077-2.018,0.106-8.962,0.167-14.029c0.017-1.46,1.401-2.427,2.512-1.699C136.338,334.789,136.474,335.63,136.474,335.63z"
							/>
						<path style="fill:#F05A00;" d="M121.355,327.374v15.894c0,0,0,2.47-1.09,2.709c-1.602,0.354-2.697-0.762-2.836-4.442
							c-0.076-2.017,0.107-8.96,0.167-14.029c0.018-1.458,1.401-2.427,2.513-1.699C121.219,326.532,121.355,327.374,121.355,327.374
							z"/>
						<path style="fill:#F05A00;" d="M114.065,322.934v15.893c0,0,0,2.469-1.09,2.709c-1.602,0.353-2.697-0.762-2.837-4.442
							c-0.076-2.017,0.107-8.96,0.168-14.029c0.017-1.458,1.402-2.427,2.512-1.699C113.928,322.092,114.065,322.934,114.065,322.934
							z"/>
						<path style="fill:#F05A00;" d="M107.051,319.253v15.893c0,0,0,2.47-1.09,2.71c-1.603,0.353-2.697-0.762-2.836-4.442
							c-0.077-2.018,0.108-8.961,0.167-14.03c0.017-1.457,1.401-2.426,2.512-1.698C106.915,318.411,107.051,319.253,107.051,319.253
							z"/>
					</g>
				</g>
				<polygon style="fill:#FFA500;" points="141.387,326.431 141.387,323.309 93.727,296.469 90.71,297.768 				"/>
			</g>
		</g>
		<g>
			<g>
				<g>
					<path style="fill:#FAC1AC;" d="M315.913,141.014c-3.521,6.183-0.765,10.47-0.713,14.174c0.021,1.812-3.43,6.42-3.29,7.071
						c0.091,0.386,4.043,1.686,4.146,2.831c0.191,2.151-0.084,2.369,0.295,3.799c0.704,2.619,2.168,5.268,5.702,6.351
						c3.532,1.103,10.358-0.064,10.358-0.064l0.551,12.65c0,0,10.37,4.912,19.397-1.77c0,0-0.711-3.675-1.104-5.536
						c-1.207-5.691,1.005-36,1.005-36S319.084,135.447,315.913,141.014z"/>
				</g>
				<g>
					<g>
						<g>
							<path style="fill:#FAC1AC;" d="M262.022,170.768c-2.115-1.92-4.097-2.687-3.58-4.468c0.705-2.436,1.482-5.219,2.637-6.579
								c1.151-1.356,1.46-1.681,3.185-0.989c1.731,0.69,2.154,1.676,3.856,2.957c1.701,1.285,7.483,6.228,7.757,7.563
								c0.274,1.331-3.474,6.386-3.474,6.386S264.879,173.361,262.022,170.768z"/>
							<path style="fill:#F59300;" d="M358.063,222.466c10.13-1.462,9.879-10.308,9.356-16.336
								c-0.378-4.421-1.079-15.242-7.608-16.248c-6.739-1.037-33.623-1.751-50.086-10.314c-3.896-2.03-18.78-8.431-24.978-11.457
								c-0.743-0.54-7.077-2.288-9.559-2.072c-6.172,0.534-6.974,6.178-6.662,9.742c0.052,0.595,18.558,15.672,22.368,19.04
								c15.059,13.285,33.836,24.462,43.353,26.262C342.304,222.611,352.589,223.061,358.063,222.466z"/>
						</g>
						<path style="fill:#FAC1AC;" d="M256.076,152.411c-0.584,1.276,1.688,3.217,3.104,5.075c1.174,1.541,3.172,4.887,3.172,4.887
							l3.093-2.63l-3.917-4.044c0,0-2.344-2.462-3.129-2.647C258.236,153.012,256.347,151.821,256.076,152.411z"/>
					</g>
					<g>
						<g>
							<path style="fill:#FAC1AC;" d="M328.102,447.688c0,0-1.562-3.383-2.163-5.145c-0.604-1.75-4.224-34.66-4.224-34.66
								s-13.593,6.822-10.521,27.525c0.088,0.592,1.014,5.451,1.328,6.465c0.314,1.022-1.262,1.787-1.817,2.391
								c-0.556,0.602-0.125,3.215,0.457,4.037c0.579,0.826,6.336,4.189,8.201,4.063c1.864-0.119,4.504-0.936,5.617-1.658
								C326.093,449.98,328.102,447.688,328.102,447.688z"/>
							<path style="fill:#221F4F;" d="M321.962,458.398c-3.805,0.43-6.836-0.926-8.486-2.508c-1.521-1.467-4.379-2.502-5.097-2.764
								c-2.939-1.084-4.202-0.867-7.132-1.631c-4.588-0.92-6.49-1.287-7.539-2.674c-0.282,0.604-0.442,1.238-0.368,1.875
								c0.033,0.32,0.14,0.619,0.269,0.912l-0.014,0.01c0,0,0.016,0.012,0.018,0.012c0.938,2.152,2.621,2.447,8.052,3.539
								c2.928,0.758,4.191,0.549,7.13,1.629c0.713,0.266,3.576,1.303,5.099,2.762c1.646,1.584,4.68,2.943,8.484,2.51
								c4.724-0.531,8.3-3.176,7.992-5.9c-0.074-0.643-0.397-1.211-0.85-1.725C328.446,456.389,325.536,457.998,321.962,458.398z"/>
							<path style="fill:#6A77E0;" d="M328.102,447.688c-0.539-1.418-0.9-2.293-0.998-2.527c-0.009,0.031-0.023,0.057-0.035,0.084
								c0.009,0.025,0.02,0.045,0.02,0.068c0.236,2.086-2.514,4.117-6.142,4.531c-1.462,0.166-2.823,0.031-3.955-0.32
								c-3.233-0.283-5.706-1.746-5.938-3.789c-0.123-1.07,0.419-2.121,1.377-3.029c-0.009,0-0.017-0.01-0.023-0.012l-0.114-0.078
								l-0.006,0.008c-0.308-0.174-0.644-0.32-0.999-0.439c-0.031-0.012-1.209-0.836-1.209-0.836
								c-4.324-2.773-7.123-3.471-8.314-3.557c-7.122-0.543-8.92,4.713-8.498,8.512c0.112,1.008,0.439,2.52,0.439,2.52
								s0.422,1.35,4.435,2.477c2.029,0.57,6.384,0.9,6.85,0.932v0.01l0.012-0.004c0.02,0,0.078,0.004,0.078,0.004
								s0.002-0.014,0.002-0.021c0.665,0.344,1.469,0.709,2.444,1.049c3.067,1.088,5.728,2.685,5.728,2.685l0.907,0.561
								c0.522,0.406,1.221,0.85,2.035,1.115c1.727,0.555,4.521,1.391,5.607,1.266c1.085-0.125,3.095-0.477,4.134-0.912
								c1.04-0.438,1.734-0.9,2.406-1.553c0.674-0.65,1.175-1.984,1.175-1.984S328.74,449.344,328.102,447.688z"/>
						</g>
						<g>
							<path style="fill:#FAC1AC;" d="M361.144,438.086c0,0-1.562-3.381-2.163-5.141c-0.604-1.754-1.899-10.002-1.899-10.002
								l-12.963,0.1c0,0-0.449,2.576,0.118,2.762c0.564,0.199,1.014,5.455,1.328,6.471c0.314,1.016-1.259,1.787-1.817,2.389
								c-0.558,0.605-0.122,3.217,0.458,4.039c0.579,0.824,6.334,4.191,8.198,4.061c1.865-0.119,4.506-0.934,5.619-1.658
								C359.135,440.383,361.144,438.086,361.144,438.086z"/>
							<path style="fill:#221F4F;" d="M355.004,448.801c-3.805,0.428-6.841-0.926-8.483-2.51c-1.524-1.463-4.385-2.5-5.1-2.766
								c-2.94-1.082-4.204-0.863-7.131-1.627c-4.588-0.92-6.491-1.291-7.538-2.674c-0.288,0.605-0.445,1.236-0.374,1.871
								c0.038,0.322,0.143,0.621,0.271,0.918l-0.012,0.008l0.015,0.008c0.938,2.152,2.623,2.453,8.054,3.539
								c2.929,0.762,4.19,0.553,7.128,1.633c0.717,0.262,3.578,1.301,5.098,2.76c1.647,1.588,4.683,2.943,8.485,2.512
								c4.724-0.533,8.302-3.174,7.995-5.898c-0.073-0.646-0.395-1.213-0.851-1.728
								C361.485,446.787,358.574,448.398,355.004,448.801z"/>
							<path style="fill:#6A77E0;" d="M361.144,438.086c-0.541-1.412-0.897-2.289-1-2.523c-0.006,0.027-0.022,0.057-0.033,0.084
								c0.008,0.021,0.02,0.043,0.021,0.066c0.237,2.088-2.511,4.119-6.141,4.533c-1.464,0.162-2.825,0.027-3.957-0.318
								c-3.234-0.283-5.708-1.748-5.936-3.793c-0.122-1.068,0.417-2.117,1.376-3.031c-0.008,0-0.017-0.008-0.024-0.01l-0.111-0.076
								l-0.009,0.01c-0.308-0.176-0.644-0.324-1-0.445c-0.028-0.01-1.206-0.836-1.206-0.836c-4.328-2.771-7.125-3.469-8.316-3.557
								c-7.12-0.541-8.915,4.717-8.498,8.514c0.114,1.012,0.443,2.522,0.443,2.522s0.421,1.346,4.433,2.478
								c2.029,0.566,6.381,0.897,6.851,0.928l-0.003,0.012l0.014-0.006c0.02,0,0.077,0.006,0.077,0.006s0-0.016,0-0.022
								c0.669,0.34,1.472,0.705,2.446,1.049c3.064,1.086,5.726,2.684,5.726,2.684l0.912,0.563c0.52,0.406,1.221,0.85,2.032,1.111
								c1.725,0.557,4.522,1.393,5.605,1.271c1.087-0.125,3.094-0.48,4.134-0.918c1.04-0.436,1.738-0.898,2.408-1.549
								s1.174-1.986,1.174-1.986S361.78,439.746,361.144,438.086z"/>
						</g>
						<path style="fill:#4849D3;" d="M372.345,288.697c-0.851-11.393-16.049-20.691-35.839-20.691
							c-19.79,0-35.707,9.264-35.837,20.691c-0.299,26.875-7.917,44.822-9.662,60.09c-1.746,15.275,3.424,34.898,9.346,49.299
							c4.764,11.578,8.46,38.836,8.992,39.525c0.003,0.004,0.007,0.01,0.007,0.014c0.081,0.488,3.527,3.625,8.636,3.223
							c5.226-0.414,9.487-2.455,9.487-5.482c0,0-0.715-18.09-2.451-34.23c-1.734-16.137-3.69-32.719-3.69-32.719
							s2.45-21.627,12.289-35.088c0.176-0.244,2.886-3.416,2.886-4.102c-1.07,28.861,0.062,38.27,3.732,62.154
							c1.328,8.641,1.51,39.164,1.51,39.164c0,3.022,4.251,5.473,9.485,5.473c4.283,0,7.859-1.645,9.038-3.897l0.043,0.006
							c-0.014-0.006-0.028-0.006-0.041-0.006c0.266-0.504,0.447-1.025,0.447-1.576c0-0.799-0.262-4.367-0.351-5.846
							c-1.2-19.988,6.307-61.615,7.524-70.271c1.356-9.672,1.527-8.932,2.538-23.928
							C370.709,326.383,372.986,297.291,372.345,288.697z"/>
						<path style="opacity:0.2;fill:#221F4F;" d="M346.169,370.758c3.102,23.441,2.553,60.627-4.247,62.098
							c-0.21-8.953-0.99-36.988-1.683-41.48c-3.673-23.885-4.807-33.287-3.735-62.147c0,0.672-2.592,3.715-2.876,4.082
							c2.036-4.492,11.785-9.48,14.377-9.48C355.194,323.83,342.207,340.81,346.169,370.758z"/>
					</g>
					<g>
						<path style="fill:#FFA500;" d="M368.316,268.57c-4.207-7.933-5.539-21.499-3.327-34.326c0.856-4.969,9.41-13.29,0.854-37.747
							c-4.721-13.494-13.378-13.494-13.378-13.494c-3.066-1.101-11.207,1.074-11.246,1.074c-12.607,0-20.565,4.737-27.178,11.209
							c-2.295,2.361-4.362,5.208-6.038,8.65c-3.165,6.504-4.111,15.894-2.735,29.272c1.37,13.386-6.865,59.388-6.865,59.388
							s0.526,4.443,5.644,9.021c6.446,6.504,18.554,10.897,32.459,10.897c20.656,0,37.407-9.67,37.407-21.596
							C373.913,289.559,372.373,276.219,368.316,268.57z"/>
						<path style="opacity:0.5;fill:#F59300;" d="M322.126,255.221c-5.331,20.684-12.131,38.012-21.618,42.336
							c-1.857-2.834-2.108-4.965-2.108-4.965s8.237-45.996,6.873-59.387c-1.27-12.258-0.577-21.157,1.983-27.569
							c0.336,0.011,0.716,0.269,0.997,0.095C323.101,196.497,334.487,207.267,322.126,255.221z"/>
					</g>
					<path style="fill:#4849D3;" d="M290.195,277.41c0,0,10.921-53.452,18.071-73.498c1.003-2.813,4.598-8.591,8.056-10.477
						c5.71-3.113,9.729,0,9.729,0l-2.437,1.366c0,0-0.83-0.523-3.322-0.705c-1.271-0.093-2.586,0.384-4.229,1.735
						c-3.169,2.606-5.676,6.388-7.076,9.904c-1.569,3.944-15.946,69.962-15.946,69.962L290.195,277.41z"/>
					<g>
						<polygon style="fill:#00A70F;" points="289.436,277.768 324.61,298.324 321.716,336.791 278.056,311.584 						"/>
						<polygon style="fill:#008C07;" points="328.666,332.363 321.716,336.791 324.61,298.324 328.537,295.668 						"/>
						<g>
							<polygon style="fill:#221F4F;" points="328.537,295.668 293.602,275.197 289.436,277.768 324.61,298.324 							"/>
							<g>
								<polygon style="fill:#47476D;" points="289.421,277.75 324.594,298.307 325.174,297.914 289.933,277.434 								"/>
								<polygon style="fill:#47476D;" points="293.074,275.496 327.926,296.053 328.521,295.65 293.586,275.18 								"/>
								<polygon style="fill:#47476D;" points="323.975,297.945 328.061,295.381 328.521,295.65 324.754,298.197 								"/>
								<polygon style="fill:#47476D;" points="289.454,277.75 293.62,275.18 294.126,275.477 290.033,278.088 								"/>
							</g>
						</g>
						<g>
							<path style="fill:#008C07;" d="M294.615,300.316l5.032-16.582c0,0,2.693-3.164,3.685-2.92
								c2.137,0.525,12.99,7.695,12.99,7.695s-2.839,1.121-3.497,2.928c-0.697,1.916-0.697,1.916-4.567,16.881L294.615,300.316z"/>
							<path style="fill:#221F4F;" d="M300.23,300.795c0,0-2.55,5.074-2.209,5.994c0.342,0.918,1.844,1.584,2.584,1.18
								c0.74-0.404,2.727-5.291,2.727-5.291L300.23,300.795z"/>
						</g>
						<path style="fill:#4849D3;" d="M325.174,301.063c0,0,5.802-72.678,6.386-81.447c0.573-8.607-1.896-15.725-2.894-18.296
							c-1.563-4.023-5.565-7.149-5.565-7.149l2.951-0.735c0,0,10.106,3.061,8.196,29.283c-0.983,13.498-6.339,76.766-6.339,76.766
							L325.174,301.063z"/>
					</g>
					<g>
						<path style="fill:#FAC1AC;" d="M250.57,261.249c0,0-7.308,2.901-9.869,2.546c-2.563-0.357-10.715-1.13-11.854-4.918
							c-0.661-2.197-1.437-2.969-0.492-4.28c1.157-1.607,6.182-0.032,11.989-2.94c1.727-0.865,2.948-1.461,2.948-1.461
							s-1.392-2.309-2.008-3.158c-0.61-0.854-0.784-2.74-0.425-2.963c0.361-0.225,2.057-0.113,2.912,0.549
							c2.996,2.323,4.568,5.107,5.727,5.528c1.158,0.419,4.526-1.801,4.794-2.411c0.267-0.609,4.605,10.93,4.605,10.93
							L250.57,261.249z"/>
						<path style="fill:#FFA500;" d="M330.111,219.616c2.394-8.956-2.112-22.99-7.011-25.445c-3.591-1.802-9.72,0.374-13.59,4.937
							c-3.994,4.708-20.348,26.977-34.759,35.623c-3.412,2.043-11.996,8.051-17.541,10.926c-0.739,0.383-4.555,1.746-5.309,2.364
							c-0.069,0.044-0.114,0.073-0.114,0.073s-3.738,1.77-4.492,3.896c-2.62,7.383,3.039,10.156,3.587,10.168
							c0,0,22.431-6.323,26.835-7.668c17.389-5.325,32.061-13.368,39.039-18.683C322.598,231.359,327.474,229.486,330.111,219.616z"
							/>
					</g>
				</g>
			</g>
			<g>
				<g>
					<path style="fill:#221F4F;" d="M318.81,132.104c-9.094,4.884-6.768,13.578,0.654,17.891
						c12.601,7.461,22.117,22.873,30.99,18.145c16.175-8.619,5.238-32.818-2.187-37.132
						C340.846,126.692,326.287,127.788,318.81,132.104z"/>
				</g>
				<path style="fill:#221F4F;" d="M382.194,216.014c-0.59-3.66-2.027-7.174-3.175-10.679c-1.239-3.782-2.587-7.49-4.256-11.107
					c-3.118-6.762-7.28-12.711-12.294-18.194c-2.105-2.303-8.299-10.347-10.459-10.616c-0.24-0.03-0.388,0.133-0.429,0.324
					c-0.52-0.068-1.022-0.009-1.489,0.196c-0.79,0.112-1.579,0.341-2.244,0.521c-0.258,0.069-0.495,0.251-0.51,0.543
					c-0.012,0.247-0.007,0.486-0.001,0.726c-0.365,7.487-2.332,14.783-2.627,22.281c-0.233,5.917,0.416,11.896,2.394,17.494
					c2.17,6.14,6.442,10.422,11.567,14.232c2.841,2.112,5.97,3.807,8.77,5.963c2.648,2.039,10.466,9.033,10.6,8.656
					C380.461,229.525,383.388,223.434,382.194,216.014z"/>
				<path style="fill:#00A70F;" d="M346.767,168.992l0.332,1.873l7.965-3.236l-1.496-1.607c0,0-1.877,1.048-2.652,1.454
					C349.981,167.963,346.767,168.992,346.767,168.992z"/>
			</g>
		</g>
	</g>
</g>
</svg>
